<svg width="62" height="63" viewBox="0 0 62 63" fill="none" xmlns="http://www.w3.org/2000/svg">
<path id="Vector" d="M57.5714 24.75H37.6429V4.5C37.6429 2.01516 35.6597 0 33.2143 0H28.7857C26.3403 0 24.3571 2.01516 24.3571 4.5V24.75H4.42857C1.98317 24.75 0 26.7652 0 29.25V33.75C0 36.2348 1.98317 38.25 4.42857 38.25H24.3571V58.5C24.3571 60.9848 26.3403 63 28.7857 63H33.2143C35.6597 63 37.6429 60.9848 37.6429 58.5V38.25H57.5714C60.0168 38.25 62 36.2348 62 33.75V29.25C62 26.7652 60.0168 24.75 57.5714 24.75Z" fill="#1E1D1D"/>
</svg>
