<svg width="29" height="25" viewBox="0 0 29 25" fill="none" xmlns="http://www.w3.org/2000/svg">
<path id="Cross" d="M19.9968 12.5L28.2412 5.39275C29.2529 4.5206 29.2529 3.10653 28.2412 2.23366L26.4089 0.654119C25.3972 -0.21804 23.7569 -0.21804 22.7444 0.654119L14.5 7.76136L6.2556 0.654119C5.24389 -0.21804 3.60358 -0.21804 2.59105 0.654119L0.758778 2.23366C-0.252926 3.10582 -0.252926 4.51989 0.758778 5.39275L9.00318 12.5L0.758778 19.6072C-0.252926 20.4794 -0.252926 21.8935 0.758778 22.7663L2.59105 24.3459C3.60276 25.218 5.24389 25.218 6.2556 24.3459L14.5 17.2386L22.7444 24.3459C23.7561 25.218 25.3972 25.218 26.4089 24.3459L28.2412 22.7663C29.2529 21.8942 29.2529 20.4801 28.2412 19.6072L19.9968 12.5Z" fill="#A20808"/>
</svg>
