<svg width="36" height="29" viewBox="0 0 36 29" fill="none" xmlns="http://www.w3.org/2000/svg">
<path id="role" d="M34.3442 21.1439C34.4905 20.3453 34.4905 19.5297 34.3442 18.7311L35.7957 17.8871C35.9644 17.7908 36.0376 17.5926 35.9813 17.4057C35.6044 16.1822 34.9574 15.0721 34.1136 14.1545C33.9842 14.0129 33.7761 13.9789 33.6073 14.0752L32.1559 14.9191C31.5427 14.3924 30.8395 13.9846 30.0801 13.7127V12.0248C30.0801 11.8322 29.945 11.6623 29.7594 11.6227C28.5049 11.3395 27.2279 11.3508 26.0352 11.6227C25.8496 11.6623 25.7146 11.8322 25.7146 12.0248V13.7127C24.9551 13.9846 24.2519 14.3924 23.6387 14.9191L22.1873 14.0752C22.0242 13.9789 21.8104 14.0129 21.681 14.1545C20.8372 15.0721 20.1903 16.1822 19.8133 17.4057C19.7571 17.5926 19.8358 17.7908 19.999 17.8871L21.4504 18.7311C21.3041 19.5297 21.3041 20.3453 21.4504 21.1439L19.999 21.9879C19.8302 22.0842 19.7571 22.2824 19.8133 22.4693C20.1903 23.6928 20.8372 24.7973 21.681 25.7205C21.8104 25.8621 22.0186 25.8961 22.1873 25.7998L23.6387 24.9559C24.2519 25.4826 24.9551 25.8904 25.7146 26.1623V27.8502C25.7146 28.0428 25.8496 28.2127 26.0352 28.2523C27.2898 28.5355 28.5668 28.5242 29.7594 28.2523C29.945 28.2127 30.0801 28.0428 30.0801 27.8502V26.1623C30.8395 25.8904 31.5427 25.4826 32.1559 24.9559L33.6073 25.7998C33.7704 25.8961 33.9842 25.8621 34.1136 25.7205C34.9574 24.8029 35.6044 23.6928 35.9813 22.4693C36.0376 22.2824 35.9588 22.0842 35.7957 21.9879L34.3442 21.1439ZM27.9029 22.6846C26.3953 22.6846 25.1745 21.4498 25.1745 19.9375C25.1745 18.4252 26.4009 17.1904 27.9029 17.1904C29.405 17.1904 30.6314 18.4252 30.6314 19.9375C30.6314 21.4498 29.4106 22.6846 27.9029 22.6846ZM12.6013 14.5C16.5786 14.5 19.8021 11.2545 19.8021 7.25C19.8021 3.24551 16.5786 0 12.6013 0C8.62403 0 5.40057 3.24551 5.40057 7.25C5.40057 11.2545 8.62403 14.5 12.6013 14.5ZM23.92 27.3291C23.7906 27.2611 23.6612 27.1818 23.5375 27.1082L23.0931 27.3688C22.7555 27.5613 22.373 27.6689 21.9904 27.6689C21.3773 27.6689 20.7866 27.4084 20.3646 26.9553C19.3352 25.8338 18.5476 24.4687 18.1032 23.0131C17.7938 22.0105 18.21 20.9514 19.1101 20.4246L19.5546 20.1641C19.5489 20.0168 19.5489 19.8695 19.5546 19.7223L19.1101 19.4617C18.21 18.9406 17.7938 17.8758 18.1032 16.8732C18.1538 16.709 18.2269 16.5447 18.2832 16.3805C18.0694 16.3635 17.8613 16.3125 17.6419 16.3125H16.7024C15.4535 16.8902 14.064 17.2187 12.6013 17.2187C11.1387 17.2187 9.75478 16.8902 8.50027 16.3125H7.5608C3.38661 16.3125 0 19.7223 0 23.925V26.2812C0 27.7822 1.2095 29 2.70028 29H22.5024C23.0706 29 23.5994 28.8187 24.0325 28.5186C23.965 28.3033 23.92 28.0824 23.92 27.8502V27.3291Z" fill="#B9B9B9"/>
</svg>
