<svg width="60" height="40" viewBox="0 0 58 40" fill="none" xmlns="http://www.w3.org/2000/svg">
<path id="role" d="M55.3324 34.9969C55.5681 33.675 55.5681 32.325 55.3324 31.0031L57.6708 29.6062C57.9427 29.4469 58.0605 29.1187 57.9699 28.8094C57.3626 26.7844 56.3203 24.9469 54.9608 23.4281C54.7523 23.1937 54.417 23.1375 54.1451 23.2969L51.8067 24.6937C50.8188 23.8219 49.6859 23.1469 48.4623 22.6969V19.9031C48.4623 19.5844 48.2448 19.3031 47.9457 19.2375C45.9245 18.7687 43.8671 18.7875 41.9457 19.2375C41.6466 19.3031 41.4291 19.5844 41.4291 19.9031V22.6969C40.2055 23.1469 39.0726 23.8219 38.0846 24.6937L35.7463 23.2969C35.4834 23.1375 35.139 23.1937 34.9306 23.4281C33.571 24.9469 32.5287 26.7844 31.9215 28.8094C31.8309 29.1187 31.9577 29.4469 32.2206 29.6062L34.559 31.0031C34.3233 32.325 34.3233 33.675 34.559 34.9969L32.2206 36.3938C31.9487 36.5531 31.8309 36.8813 31.9215 37.1906C32.5287 39.2156 33.571 41.0438 34.9306 42.5719C35.139 42.8063 35.4744 42.8625 35.7463 42.7031L38.0846 41.3063C39.0726 42.1781 40.2055 42.8531 41.4291 43.3031V46.0969C41.4291 46.4156 41.6466 46.6969 41.9457 46.7625C43.9668 47.2312 46.0242 47.2125 47.9457 46.7625C48.2448 46.6969 48.4623 46.4156 48.4623 46.0969V43.3031C49.6859 42.8531 50.8188 42.1781 51.8067 41.3063L54.1451 42.7031C54.4079 42.8625 54.7523 42.8063 54.9608 42.5719C56.3203 41.0531 57.3626 39.2156 57.9699 37.1906C58.0605 36.8813 57.9336 36.5531 57.6708 36.3938L55.3324 34.9969ZM44.9547 37.5469C42.5257 37.5469 40.559 35.5031 40.559 33C40.559 30.4969 42.5348 28.4531 44.9547 28.4531C47.3747 28.4531 49.3505 30.4969 49.3505 33C49.3505 35.5031 47.3837 37.5469 44.9547 37.5469ZM20.3021 24C26.71 24 31.9034 18.6281 31.9034 12C31.9034 5.37188 26.71 0 20.3021 0C13.8943 0 8.70092 5.37188 8.70092 12C8.70092 18.6281 13.8943 24 20.3021 24ZM38.5378 45.2344C38.3294 45.1219 38.1209 44.9906 37.9215 44.8688L37.2055 45.3C36.6617 45.6188 36.0454 45.7969 35.4291 45.7969C34.4411 45.7969 33.4895 45.3656 32.8097 44.6156C31.1511 42.7594 29.8822 40.5 29.1662 38.0906C28.6677 36.4312 29.3384 34.6781 30.7886 33.8063L31.5046 33.375C31.4955 33.1312 31.4955 32.8875 31.5046 32.6438L30.7886 32.2125C29.3384 31.35 28.6677 29.5875 29.1662 27.9281C29.2478 27.6562 29.3656 27.3844 29.4562 27.1125C29.1118 27.0844 28.7765 27 28.423 27H26.9094C24.8973 27.9562 22.6586 28.5 20.3021 28.5C17.9456 28.5 15.716 27.9562 13.6949 27H12.1813C5.4562 27 0 32.6437 0 39.6V43.5C0 45.9844 1.94864 48 4.35046 48H36.2538C37.1692 48 38.0212 47.7 38.7191 47.2031C38.6103 46.8469 38.5378 46.4813 38.5378 46.0969V45.2344Z" fill="#1E1D1D"/>
</svg>
