<svg width="40" height="40" viewBox="0 0 40 48" fill="none" xmlns="http://www.w3.org/2000/svg">
<path id="Vector" d="M20 24C26.3125 24 31.4286 18.6281 31.4286 12C31.4286 5.37188 26.3125 0 20 0C13.6875 0 8.57143 5.37188 8.57143 12C8.57143 18.6281 13.6875 24 20 24ZM28 27H26.5089C24.5268 27.9562 22.3214 28.5 20 28.5C17.6786 28.5 15.4821 27.9562 13.4911 27H12C5.375 27 0 32.6437 0 39.6V43.5C0 45.9844 1.91964 48 4.28571 48H35.7143C38.0804 48 40 45.9844 40 43.5V39.6C40 32.6437 34.625 27 28 27Z" fill="#1E1D1D"/>
</svg>
