<svg width="24" height="29" viewBox="0 0 24 29" fill="none" xmlns="http://www.w3.org/2000/svg">
<path id="Vector" d="M12 14.5C15.7875 14.5 18.8571 11.2545 18.8571 7.25C18.8571 3.24551 15.7875 0 12 0C8.2125 0 5.14286 3.24551 5.14286 7.25C5.14286 11.2545 8.2125 14.5 12 14.5ZM16.8 16.3125H15.9054C14.7161 16.8902 13.3929 17.2188 12 17.2188C10.6071 17.2188 9.28929 16.8902 8.09464 16.3125H7.2C3.225 16.3125 0 19.7223 0 23.925V26.2812C0 27.7822 1.15179 29 2.57143 29H21.4286C22.8482 29 24 27.7822 24 26.2812V23.925C24 19.7223 20.775 16.3125 16.8 16.3125Z" fill="#B9B9B9"/>
</svg>
