<svg width="60" height="48" viewBox="0 0 60 48" fill="none" xmlns="http://www.w3.org/2000/svg">
<path id="tags" d="M46.682 21.182L26.818 1.31803C25.9741 0.474116 24.8295 6.24072e-06 23.6361 0H4.5C2.01469 0 0 2.01469 0 4.5V23.6361C6.24072e-06 24.8295 0.474116 25.9741 1.31803 26.818L21.182 46.682C22.9392 48.4393 25.7885 48.4394 27.5459 46.682L46.682 27.5459C48.4393 25.7886 48.4393 22.9393 46.682 21.182ZM10.5 15C8.01469 15 6 12.9853 6 10.5C6 8.01469 8.01469 6 10.5 6C12.9853 6 15 8.01469 15 10.5C15 12.9853 12.9853 15 10.5 15ZM58.682 27.5459L39.5459 46.682C37.7886 48.4393 34.9393 48.4393 33.182 46.682L33.1482 46.6482L49.4663 30.3302C51.0599 28.7365 51.9375 26.6177 51.9375 24.3639C51.9375 22.1102 51.0598 19.9913 49.4663 18.3977L31.0685 0H35.6361C36.8295 6.24072e-06 37.9741 0.474116 38.818 1.31803L58.682 21.182C60.4393 22.9393 60.4393 25.7886 58.682 27.5459Z" fill="#FFE4C4"/>
</svg>
