<svg width="60" height="48" viewBox="0 0 60 48" fill="none" xmlns="http://www.w3.org/2000/svg">
<path id="group" d="M9 20.5714C12.3094 20.5714 15 17.4964 15 13.7143C15 9.93214 12.3094 6.85714 9 6.85714C5.69062 6.85714 3 9.93214 3 13.7143C3 17.4964 5.69062 20.5714 9 20.5714ZM51 20.5714C54.3094 20.5714 57 17.4964 57 13.7143C57 9.93214 54.3094 6.85714 51 6.85714C47.6906 6.85714 45 9.93214 45 13.7143C45 17.4964 47.6906 20.5714 51 20.5714ZM54 24H48C46.35 24 44.8594 24.7607 43.7719 25.9929C47.55 28.3607 50.2313 32.6357 50.8125 37.7143H57C58.6594 37.7143 60 36.1821 60 34.2857V30.8571C60 27.075 57.3094 24 54 24ZM30 24C35.8031 24 40.5 18.6321 40.5 12C40.5 5.36786 35.8031 0 30 0C24.1969 0 20 5.36786 20 12C20 18.6321 24.1969 24 30 24ZM37.2 27.4286H36.4219C34.4719 28.5 32.1517 27.4286 29.8454 27.4286C27.0679 27.4286 26.1148 27.4286 23.5781 27.4286H22.8C16.8375 27.4286 12 32.7857 12 39.6V42.8571C12 45.6964 14.0156 48 16.5 48H43.5C45.9844 48 48 45.6964 48 42.8571V39.7714C48 32.9571 43.1625 27.4286 37.2 27.4286ZM16.2281 25.9929C15.1406 24.7607 13.65 24 12 24H6C2.69063 24 0 27.075 0 30.8571V34.2857C0 36.1821 1.34063 37.7143 3 37.7143H9.17812C9.76875 32.6357 12.45 28.3607 16.2281 25.9929Z" fill="#FFE4C4"/>
</svg>
