<svg width="30" height="32" viewBox="0 0 30 32" fill="none" xmlns="http://www.w3.org/2000/svg">
<path id="single" d="M15 16C19.7344 16 23.5714 12.4187 23.5714 8C23.5714 3.58125 19.7344 0 15 0C10.2656 0 6.42857 3.58125 6.42857 8C6.42857 12.4187 10.2656 16 15 16ZM21 18H19.8817C18.3951 18.6375 16.7411 19 15 19C13.2589 19 11.6116 18.6375 10.1183 18H9C4.03125 18 0 21.7625 0 26.4V29C0 30.6562 1.43973 32 3.21429 32H26.7857C28.5603 32 30 30.6562 30 29V26.4C30 21.7625 25.9688 18 21 18Z" fill="#FFE3D7"/>
</svg>
