<svg width="24" height="20" viewBox="0 0 24 20" fill="none" xmlns="http://www.w3.org/2000/svg">
<path d="M3.6 8.57143C4.92375 8.57143 6 7.29018 6 5.71429C6 4.13839 4.92375 2.85714 3.6 2.85714C2.27625 2.85714 1.2 4.13839 1.2 5.71429C1.2 7.29018 2.27625 8.57143 3.6 8.57143ZM20.4 8.57143C21.7238 8.57143 22.8 7.29018 22.8 5.71429C22.8 4.13839 21.7238 2.85714 20.4 2.85714C19.0763 2.85714 18 4.13839 18 5.71429C18 7.29018 19.0763 8.57143 20.4 8.57143ZM21.6 10H19.2C18.54 10 17.9438 10.317 17.5088 10.8304C19.02 11.817 20.0925 13.5982 20.325 15.7143H22.8C23.4638 15.7143 24 15.0759 24 14.2857V12.8571C24 11.2813 22.9237 10 21.6 10ZM12 10C14.3213 10 16.2 7.76339 16.2 5C16.2 2.23661 14.3213 0 12 0C9.67875 0 8 2.23661 8 5C8 7.76339 9.67875 10 12 10ZM14.88 11.4286H14.5688C13.7888 11.875 12.8607 11.4286 11.9382 11.4286C10.8272 11.4286 10.4459 11.4286 9.43125 11.4286H9.12C6.735 11.4286 4.8 13.6607 4.8 16.5V17.8571C4.8 19.0402 5.60625 20 6.6 20H17.4C18.3938 20 19.2 19.0402 19.2 17.8571V16.5714C19.2 13.7321 17.265 11.4286 14.88 11.4286ZM6.49125 10.8304C6.05625 10.317 5.46 10 4.8 10H2.4C1.07625 10 0 11.2813 0 12.8571V14.2857C0 15.0759 0.53625 15.7143 1.2 15.7143H3.67125C3.9075 13.5982 4.98 11.817 6.49125 10.8304Z" fill="#FFE4C4"/>
</svg>
