<svg width="21" height="16" viewBox="0 0 21 16" fill="none" xmlns="http://www.w3.org/2000/svg">
<path id="cross" d="M14.5611 8L20.2291 3.45136C20.9247 2.89318 20.9247 1.98818 20.2291 1.42955L18.9694 0.418636C18.2739 -0.139545 17.1462 -0.139545 16.45 0.418636L10.782 4.96727L5.11387 0.418636C4.41832 -0.139545 3.2906 -0.139545 2.59448 0.418636L1.33478 1.42955C0.639222 1.98773 0.639222 2.89273 1.33478 3.45136L7.00286 8L1.33478 12.5486C0.639222 13.1068 0.639222 14.0118 1.33478 14.5705L2.59448 15.5814C3.29003 16.1395 4.41832 16.1395 5.11387 15.5814L10.782 11.0327L16.45 15.5814C17.1456 16.1395 18.2739 16.1395 18.9694 15.5814L20.2291 14.5705C20.9247 14.0123 20.9247 13.1073 20.2291 12.5486L14.5611 8Z" fill="#A20808"/>
</svg>
