<svg width="16" height="16" viewBox="0 0 16 16" fill="none" xmlns="http://www.w3.org/2000/svg">
<path id="user" d="M7.58882 8C9.94863 8 11.8612 6.20937 11.8612 4C11.8612 1.79063 9.94863 0 7.58882 0C5.229 0 3.31645 1.79063 3.31645 4C3.31645 6.20937 5.229 8 7.58882 8ZM10.5795 9H10.0221C9.28107 9.31875 8.45664 9.5 7.58882 9.5C6.72099 9.5 5.8999 9.31875 5.15557 9H4.59816C2.12153 9 0.112183 10.8813 0.112183 13.2V14.5C0.112183 15.3281 0.829806 16 1.71432 16H13.4633C14.3478 16 15.0655 15.3281 15.0655 14.5V13.2C15.0655 10.8813 13.0561 9 10.5795 9Z" fill="#FFE3D7"/>
</svg>
