<svg width="10" height="7" viewBox="0 0 10 7" fill="none" xmlns="http://www.w3.org/2000/svg">
<path d="M1.53846 3C2.10417 3 2.5641 2.55156 2.5641 2C2.5641 1.44844 2.10417 1 1.53846 1C0.972756 1 0.512821 1.44844 0.512821 2C0.512821 2.55156 0.972756 3 1.53846 3ZM8.71795 3C9.28365 3 9.74359 2.55156 9.74359 2C9.74359 1.44844 9.28365 1 8.71795 1C8.15224 1 7.69231 1.44844 7.69231 2C7.69231 2.55156 8.15224 3 8.71795 3ZM9.23077 3.5H8.20513V3.5C7.81048 3.5 7.84418 3.98627 8.11092 4.27712C8.25259 4.43159 8.37283 4.60477 8.46736 4.79264C8.64211 5.13994 9.02475 5.39428 9.39589 5.27848V5.27848C9.4564 5.2596 9.51948 5.24979 9.58283 5.2517C9.82062 5.25888 10 5.27593 10 5.03125V4.375C10 3.82344 9.79647 3.5 9.23077 3.5ZM5.12821 3.5C6.12019 3.5 6.92308 2.71719 6.92308 1.75C6.92308 0.782812 6.12019 0 5.12821 0C4.13622 0 3.4188 0.782812 3.4188 1.75C3.4188 2.71719 4.13622 3.5 5.12821 3.5ZM6.35897 4V4C6.27137 4 6.18572 4.02303 6.10072 4.04422C5.79548 4.12031 5.44771 4 5.10178 4C4.62699 4 4.46407 4 4.03045 4H3.89744C2.87821 4 2.05128 4.78125 2.05128 5.775V6.25C2.05128 6.66406 2.39583 7 2.82051 7H7.4359C7.86058 7 8.20513 6.66406 8.20513 6.25V5.8C8.20513 4.80625 7.3782 4 6.35897 4ZM2.14545 4.27707C2.41227 3.98629 2.44593 3.5 2.05128 3.5V3.5H1.02564C0.459936 3.5 0 3.94844 0 4.5L0 4.77875C0 4.92022 0.101381 5.09471 0.221457 5.16951V5.16951C0.467433 5.32275 0.747753 5.5 1.03756 5.5H1.07669C1.35868 5.5 1.59007 5.28782 1.68803 5.0234C1.79102 4.74539 1.94736 4.49296 2.14545 4.27707Z" fill="#390A04"/>
</svg>
