<svg width="7" height="8" viewBox="0 0 7 8" fill="none" xmlns="http://www.w3.org/2000/svg">
<path d="M3.5 4C4.60469 4 5.5 3.10469 5.5 2C5.5 0.895312 4.60469 0 3.5 0C2.39531 0 1.5 0.895312 1.5 2C1.5 3.10469 2.39531 4 3.5 4ZM4.9 4.5C4.72807 4.5 4.55948 4.54089 4.39717 4.5976C4.11603 4.69583 3.81409 4.75 3.5 4.75C3.18571 4.75 2.88451 4.69576 2.60291 4.5974C2.44058 4.54071 2.27194 4.5 2.1 4.5C0.940625 4.5 0 5.44063 0 6.6L0 7.25C0 7.66406 0.335937 8 0.75 8H6.25C6.66406 8 7 7.66406 7 7.25V6.6C7 5.44063 6.05938 4.5 4.9 4.5Z" fill="#491905"/>
</svg>
