<svg width="40" height="32" viewBox="0 0 40 32" fill="none" xmlns="http://www.w3.org/2000/svg">
<path id="search" d="M39.456 27.666L31.6664 21.4354C31.3148 21.1542 30.8382 20.9979 30.3382 20.9979H29.0646C31.221 18.7919 32.5024 16.0172 32.5024 12.9987C32.5024 5.81818 25.2284 0 16.2512 0C7.27397 0 0 5.81818 0 12.9987C0 20.1793 7.27397 25.9975 16.2512 25.9975C20.0249 25.9975 23.4939 24.9726 26.2519 23.2477V24.2664C26.2519 24.6663 26.4472 25.0476 26.7988 25.3288L34.5885 31.5594C35.3229 32.1469 36.5105 32.1469 37.2371 31.5594L39.4482 29.7908C40.1826 29.2034 40.1826 28.2535 39.456 27.666ZM16.2512 20.9979C10.7273 20.9979 6.25046 17.4233 6.25046 12.9987C6.25046 8.58041 10.7195 4.99951 16.2512 4.99951C21.775 4.99951 26.2519 8.57416 26.2519 12.9987C26.2519 17.417 21.7828 20.9979 16.2512 20.9979Z" fill="#131212"/>
</svg>
