<svg width="20" height="16" viewBox="0 0 20 16" fill="none" xmlns="http://www.w3.org/2000/svg">
<path d="M15.5607 7.06065L8.93935 0.439344C8.65804 0.158039 8.27651 2.08024e-06 7.87869 0L1.5 0C0.671563 0 0 0.671562 0 1.5L0 7.87869C2.08024e-06 8.27651 0.158039 8.65804 0.439344 8.93934L7.06066 15.5607C7.64641 16.1464 8.59616 16.1465 9.18197 15.5607L15.5607 9.18197C16.1464 8.59619 16.1464 7.64643 15.5607 7.06065ZM3.5 5C2.67156 5 2 4.32844 2 3.5C2 2.67156 2.67156 2 3.5 2C4.32844 2 5 2.67156 5 3.5C5 4.32844 4.32844 5 3.5 5ZM19.5607 9.18197L13.182 15.5607C12.5962 16.1464 11.6464 16.1464 11.0607 15.5607L11.0494 15.5494L16.4888 10.1101C17.02 9.57884 17.3125 8.87256 17.3125 8.12131C17.3125 7.37006 17.0199 6.66378 16.4888 6.13256L10.3562 0L11.8787 0C12.2765 2.08024e-06 12.658 0.158039 12.9393 0.439344L19.5607 7.06065C20.1464 7.64643 20.1464 8.59619 19.5607 9.18197Z" fill="#DBC5AA"/>
</svg>
