<svg width="10" height="8" viewBox="0 0 10 8" fill="none" xmlns="http://www.w3.org/2000/svg">
<path id="close" d="M6.89545 4L9.73835 1.72568C10.0872 1.44659 10.0872 0.994091 9.73835 0.714773L9.10653 0.209318C8.75767 -0.0697727 8.19205 -0.0697727 7.8429 0.209318L5 2.48364L2.1571 0.209318C1.80824 -0.0697727 1.24261 -0.0697727 0.893466 0.209318L0.261648 0.714773C-0.0872159 0.993864 -0.0872159 1.44636 0.261648 1.72568L3.10455 4L0.261648 6.27432C-0.0872159 6.55341 -0.0872159 7.00591 0.261648 7.28523L0.893466 7.79068C1.24233 8.06977 1.80824 8.06977 2.1571 7.79068L5 5.51636L7.8429 7.79068C8.19176 8.06977 8.75767 8.06977 9.10653 7.79068L9.73835 7.28523C10.0872 7.00614 10.0872 6.55364 9.73835 6.27432L6.89545 4Z" fill="#D9D9D9"/>
</svg>
