<svg width="70" height="70" viewBox="0 0 70 70" fill="none" xmlns="http://www.w3.org/2000/svg">
<g id="emoji" filter="url(#filter0_d_38_255)">
<circle id="b" cx="31" cy="31" r="31" fill="#FDA700"/>
<path id="mouth" d="M45.9464 43L36.4554 43.8243C32.9203 44.1313 29.365 44.1242 25.8312 43.8029L17 43" stroke="#131212" stroke-width="5" stroke-linecap="round"/>
<path id="eye" d="M57.5714 25.0377C57.5714 25.6328 57.1058 26.1239 56.5116 26.1556L48.7143 26.5714L41.2147 26.5714C40.4649 26.5714 39.8571 25.9636 39.8571 25.2139C39.8571 24.6171 40.2469 24.0903 40.8175 23.9157L43.8104 23.0002C47.0065 22.0224 50.422 22.0224 53.6181 23.0002L56.7794 23.9672C57.25 24.1112 57.5714 24.5456 57.5714 25.0377Z" fill="#D9D9D9"/>
<path id="eye_2" d="M23.7143 25.5377C23.7143 26.1328 23.2487 26.6239 22.6545 26.6556L14.8572 27.0714L7.35755 27.0714C6.6078 27.0714 6.00001 26.4636 6.00001 25.7139C6.00001 25.1171 6.38975 24.5903 6.96043 24.4157L9.95327 23.5002C13.1494 22.5224 16.5649 22.5224 19.761 23.5002L22.9223 24.4672C23.3929 24.6112 23.7143 25.0456 23.7143 25.5377Z" fill="#D9D9D9"/>
</g>
<defs>
<filter id="filter0_d_38_255" x="0" y="0" width="70" height="70" filterUnits="userSpaceOnUse" color-interpolation-filters="sRGB">
<feFlood flood-opacity="0" result="BackgroundImageFix"/>
<feColorMatrix in="SourceAlpha" type="matrix" values="0 0 0 0 0 0 0 0 0 0 0 0 0 0 0 0 0 0 127 0" result="hardAlpha"/>
<feOffset dx="4" dy="4"/>
<feGaussianBlur stdDeviation="2"/>
<feComposite in2="hardAlpha" operator="out"/>
<feColorMatrix type="matrix" values="0 0 0 0 0 0 0 0 0 0 0 0 0 0 0 0 0 0 0.25 0"/>
<feBlend mode="normal" in2="BackgroundImageFix" result="effect1_dropShadow_38_255"/>
<feBlend mode="normal" in="SourceGraphic" in2="effect1_dropShadow_38_255" result="shape"/>
</filter>
</defs>
</svg>
