<svg width="20" height="18" viewBox="0 0 20 18" fill="none" xmlns="http://www.w3.org/2000/svg">
<path id="Vector" d="M19.6211 5.94375C19.7734 5.79844 20 5.93437 20 6.16406V15.75C20 16.9922 19.1602 18 18.125 18H1.875C0.839844 18 0 16.9922 0 15.75V6.16875C0 5.93438 0.222656 5.80312 0.378906 5.94844C1.25391 6.76406 2.41406 7.8 6.39844 11.2734C7.22266 11.9953 8.61328 13.5141 10 13.5047C11.3945 13.5188 12.8125 11.9672 13.6055 11.2734C17.5898 7.8 18.7461 6.75938 19.6211 5.94375ZM10 12C10.9062 12.0188 12.2109 10.6313 12.8672 10.0594C18.0508 5.54531 18.4453 5.15156 19.6406 4.02656C19.8672 3.81562 20 3.4875 20 3.14062V2.25C20 1.00781 19.1602 0 18.125 0H1.875C0.839844 0 0 1.00781 0 2.25V3.14062C0 3.4875 0.132812 3.81094 0.359375 4.02656C1.55469 5.14687 1.94922 5.54531 7.13281 10.0594C7.78906 10.6313 9.09375 12.0188 10 12Z" fill="#131212"/>
</svg>
