<svg width="20" height="16" viewBox="0 0 20 16" fill="none" xmlns="http://www.w3.org/2000/svg">
<path id="desription_i" d="M19.4492 4.43846L17.6483 5.87914C17.4647 6.02602 17.1678 6.02602 16.9842 5.87914L12.6481 2.41025C12.4645 2.26337 12.4645 2.02586 12.6481 1.87898L14.449 0.438299C15.1795 -0.1461 16.367 -0.1461 17.1014 0.438299L19.4492 2.3165C20.1836 2.9009 20.1836 3.85093 19.4492 4.43846ZM11.1012 3.11653L0.842863 11.3231L0.0147001 15.1201C-0.0985864 15.6327 0.460033 16.0764 1.10069 15.9889L5.847 15.3233L16.1053 7.11669C16.2889 6.96981 16.2889 6.7323 16.1053 6.58542L11.7692 3.11653C11.5816 2.96965 11.2848 2.96965 11.1012 3.11653ZM4.84695 10.62C4.6321 10.4481 4.6321 10.1731 4.84695 10.0012L10.8629 5.18849C11.0777 5.01661 11.4215 5.01661 11.6363 5.18849C11.8512 5.36037 11.8512 5.63538 11.6363 5.80726L5.62043 10.62C5.40557 10.7918 5.06181 10.7918 4.84695 10.62ZM3.43673 13.2482H5.31182V14.3826L2.79217 14.7357L1.57727 13.7638L2.0187 11.7481H3.43673V13.2482Z" fill="#D9D9D9"/>
</svg>
