<svg width="21" height="16" viewBox="0 0 21 16" fill="none" xmlns="http://www.w3.org/2000/svg">
<path id="tags" d="M15.7645 7.06065L9.16382 0.439344C8.88339 0.158039 8.50305 2.08024e-06 8.10647 0L1.74765 0C0.92179 0 0.252319 0.671562 0.252319 1.5L0.252319 7.87869C0.252321 8.27651 0.409866 8.65804 0.690295 8.93934L7.29098 15.5607C7.87491 16.1464 8.8217 16.1465 9.40569 15.5607L15.7645 9.18197C16.3485 8.59619 16.3485 7.64644 15.7645 7.06065ZM3.74142 5C2.91556 5 2.24609 4.32844 2.24609 3.5C2.24609 2.67156 2.91556 2 3.74142 2C4.56727 2 5.23675 2.67156 5.23675 3.5C5.23675 4.32844 4.56727 5 3.74142 5ZM19.752 9.18197L13.3932 15.5607C12.8093 16.1464 11.8625 16.1464 11.2785 15.5607L11.2673 15.5494L16.6897 10.1101C17.2193 9.57884 17.5109 8.87256 17.5109 8.12131C17.5109 7.37006 17.2192 6.66378 16.6897 6.13256L10.5762 0L12.094 0C12.4906 2.08024e-06 12.8709 0.158039 13.1514 0.439344L19.752 7.06065C20.336 7.64644 20.336 8.59619 19.752 9.18197Z" fill="#FFE3D7"/>
</svg>
