<svg width="40" height="41" viewBox="0 0 40 41" fill="none" xmlns="http://www.w3.org/2000/svg">
<path id="Vector" d="M37.1429 15.9304H24.2857V2.89643C24.2857 1.29706 23.0063 0 21.4286 0H18.5714C16.9937 0 15.7143 1.29706 15.7143 2.89643V15.9304H2.85714C1.27946 15.9304 0 17.2274 0 18.8268V21.7232C0 23.3226 1.27946 24.6196 2.85714 24.6196H15.7143V37.6536C15.7143 39.2529 16.9937 40.55 18.5714 40.55H21.4286C23.0063 40.55 24.2857 39.2529 24.2857 37.6536V24.6196H37.1429C38.7205 24.6196 40 23.3226 40 21.7232V18.8268C40 17.2274 38.7205 15.9304 37.1429 15.9304Z" fill="#1E1D1D"/>
</svg>
