<svg width="50" height="50" viewBox="0 0 50 50" fill="none" xmlns="http://www.w3.org/2000/svg">
<g id="trashcan_delete_remove_trash_icon_178327 1">
<path id="Vector" d="M12.5 40.625C12.5 43.2125 14.5984 45.3125 17.1875 45.3125H32.8125C35.4 45.3125 37.5 43.2125 37.5 40.625L40.625 15.625H9.375L12.5 40.625ZM29.6875 20.3125H32.8125V40.625H29.6875V20.3125ZM23.4375 20.3125H26.5625V40.625H23.4375V20.3125ZM17.1875 20.3125H20.3125V40.625H17.1875V20.3125ZM39.8437 9.375H29.6875C29.6875 9.375 28.9875 6.25 28.125 6.25H21.875C21.0109 6.25 20.3125 9.375 20.3125 9.375H10.1562C8.86094 9.375 7.8125 10.4234 7.8125 11.7187C7.8125 13.0141 7.8125 14.0625 7.8125 14.0625H42.1875C42.1875 14.0625 42.1875 13.0141 42.1875 11.7187C42.1875 10.4234 41.1375 9.375 39.8437 9.375Z" fill="#131212"/>
</g>
</svg>
