<svg width="38" height="32" viewBox="0 0 38 32" fill="none" xmlns="http://www.w3.org/2000/svg">
<path d="M25.95 16L36.374 6.90273C37.6531 5.78636 37.6531 3.97636 36.374 2.85909L34.0573 0.837273C32.7781 -0.279091 30.7042 -0.279091 29.424 0.837273L19 9.93454L8.57605 0.837273C7.29688 -0.279091 5.22292 -0.279091 3.94271 0.837273L1.62605 2.85909C0.34688 3.97545 0.34688 5.78545 1.62605 6.90273L12.05 16L1.62605 25.0973C0.34688 26.2136 0.34688 28.0236 1.62605 29.1409L3.94271 31.1627C5.22188 32.2791 7.29688 32.2791 8.57605 31.1627L19 22.0655L29.424 31.1627C30.7031 32.2791 32.7781 32.2791 34.0573 31.1627L36.374 29.1409C37.6531 28.0245 37.6531 26.2145 36.374 25.0973L25.95 16Z" fill="#D9D9D9"/>
</svg>
