<svg width="36" height="42" viewBox="0 0 36 42" fill="none" xmlns="http://www.w3.org/2000/svg">
<g id="logout">
<path id="Vector" d="M14.985 21H34.485" stroke="black" stroke-width="2" stroke-linecap="round" stroke-linejoin="round"/>
<path id="Vector_2" d="M27 34.5V39H3V3H27V7.5H30V1.5C30 1.10218 29.842 0.720644 29.5607 0.43934C29.2794 0.158035 28.8978 0 28.5 0H1.5C1.10218 0 0.720645 0.158035 0.43934 0.43934C0.158036 0.720644 0 1.10218 0 1.5V40.5C0 40.8978 0.158036 41.2794 0.43934 41.5607C0.720645 41.842 1.10218 42 1.5 42H28.5C28.8978 42 29.2794 41.842 29.5607 41.5607C29.842 41.2794 30 40.8978 30 40.5V34.5H27Z" fill="black"/>
<path id="Vector_3" d="M34.485 21L28.485 27" stroke="black" stroke-width="2" stroke-linecap="round" stroke-linejoin="round"/>
<path id="Vector_4" d="M34.485 21L28.485 15" stroke="black" stroke-width="2" stroke-linecap="round" stroke-linejoin="round"/>
<path id="Vector_5" d="M28.485 9.13501V6.13501" stroke="black" stroke-width="2" stroke-linecap="round" stroke-linejoin="round"/>
<path id="Vector_6" d="M28.485 36V33" stroke="black" stroke-width="2" stroke-linecap="round" stroke-linejoin="round"/>
</g>
</svg>
